<?xml version="1.0" standalone="no"?>
<!DOCTYPE svg PUBLIC "-//W3C//DTD SVG 20010904//EN"
 "http://www.w3.org/TR/2001/REC-SVG-20010904/DTD/svg10.dtd">
<svg version="1.0" xmlns="http://www.w3.org/2000/svg"
 width="167.000000pt" height="113.000000pt" viewBox="0 0 167.000000 113.000000"
 preserveAspectRatio="xMidYMid meet">

<g transform="translate(0.000000,113.000000) scale(0.100000,-0.100000)"
fill="#fff" stroke="none">
<path d="M435 983 l60 -58 -50 2 -50 2 56 -9 c31 -5 103 -27 160 -48 57 -22
128 -47 157 -57 60 -19 65 -28 9 -16 -20 5 -37 5 -37 1 0 -4 28 -11 63 -15 34
-4 70 -11 79 -16 17 -9 48 -59 48 -76 0 -17 -69 -1 -73 16 -4 15 -5 15 -6 -1
0 -9 -11 -19 -23 -21 -13 -2 -1 -5 25 -6 49 -1 87 -15 87 -31 0 -5 -5 -21 -10
-36 l-11 -27 -29 28 c-17 16 -30 36 -31 44 0 11 -2 12 -6 4 -3 -9 -10 -10 -21
-4 -9 4 -48 11 -87 14 -41 3 -60 2 -45 -3 14 -4 43 -9 65 -9 22 -1 47 -6 55
-12 11 -7 -5 -8 -55 -5 l-70 5 84 -17 c66 -14 88 -23 107 -45 28 -33 29 -37
11 -61 -13 -17 -18 -18 -66 -6 -108 26 -211 125 -211 203 0 31 -3 38 -10 27
-9 -13 -10 -13 -10 1 0 28 -58 108 -92 125 l-33 17 33 -37 c33 -37 66 -95 60
-102 -3 -2 -19 1 -38 6 -19 5 -36 8 -38 5 -2 -2 16 -9 42 -16 42 -10 48 -16
69 -63 14 -29 41 -70 62 -90 l37 -38 -61 6 c-101 8 -136 39 -182 160 -16 44
-20 70 -15 105 4 32 3 41 -4 31 -5 -8 -10 -26 -10 -39 l0 -24 -22 20 c-24 22
-61 43 -75 43 -4 0 8 -11 27 -25 39 -27 58 -59 91 -148 11 -32 35 -74 51 -93
l30 -34 -26 -10 c-14 -5 -26 -12 -26 -14 0 -5 54 9 70 19 11 7 157 -13 179
-24 8 -5 -10 -10 -43 -14 -38 -4 -77 -17 -119 -40 -34 -19 -71 -37 -82 -40
-15 -3 -13 -5 8 -6 16 0 56 14 90 33 80 45 123 52 173 31 21 -8 46 -23 56 -32
17 -15 15 -17 -36 -38 -72 -29 -126 -73 -153 -124 -12 -23 -20 -41 -18 -41 2
0 21 10 42 22 l38 22 -48 -47 c-44 -43 -86 -114 -87 -145 0 -6 18 6 39 27 55
55 141 100 350 185 263 106 294 137 304 300 6 108 26 157 84 205 21 17 31 28
21 25 -9 -3 -30 2 -47 10 -38 20 -104 20 -145 1 -17 -8 -43 -33 -58 -55 l-25
-40 -7 38 c-8 55 -42 100 -110 147 -32 23 -64 52 -72 66 -18 33 -18 15 1 -21
8 -15 30 -37 48 -49 18 -11 42 -30 53 -42 l19 -23 -25 17 c-14 10 -44 17 -72
17 l-47 0 -4 53 -3 52 -2 -52 c-2 -50 -3 -53 -29 -54 l-28 -1 26 -10 c19 -8
28 -22 35 -55 10 -42 10 -44 -10 -38 -12 3 -43 11 -70 17 -35 9 -50 18 -54 32
-5 18 -6 18 -11 3 -6 -16 -10 -15 -51 5 -38 19 -44 27 -42 48 2 14 11 36 19
50 l16 25 -27 -24 c-14 -14 -26 -35 -26 -48 0 -13 -3 -23 -6 -23 -11 0 -130
73 -174 107 -38 30 -36 26 15 -24z m551 -99 c46 -30 67 -117 44 -178 -13 -36
-26 -33 -55 14 -14 22 -38 46 -54 54 -27 14 -61 76 -61 110 0 29 82 28 126 0z
m234 -55 c0 -5 -4 -9 -10 -9 -5 0 -10 7 -10 16 0 8 5 12 10 9 6 -3 10 -10 10
-16z"/>
<path d="M682 753 c18 -29 39 -55 46 -58 13 -5 -6 22 -56 83 -12 15 -8 4 10
-25z"/>
<path d="M551 678 c5 -18 9 -33 9 -34 0 0 18 -15 40 -33 22 -17 40 -27 40 -21
0 6 -16 20 -36 32 -23 14 -37 30 -41 49 -3 16 -9 32 -14 34 -4 3 -4 -9 2 -27z"/>
<path d="M758 683 c7 -3 16 -2 19 1 4 3 -2 6 -13 5 -11 0 -14 -3 -6 -6z"/>
</g>
</svg>
